<svg xmlns="http://www.w3.org/2000/svg" xmlns:xlink="http://www.w3.org/1999/xlink" viewBox="0 0 689.96 658.57"><defs><style>.cls-1{fill:url(#Nova_amostra_de_gradiente_2);}.cls-2{fill:url(#Nova_amostra_de_gradiente_2-2);}</style><linearGradient id="Nova_amostra_de_gradiente_2" x1="218.96" y1="399.26" x2="467.08" y2="399.26" gradientUnits="userSpaceOnUse"><stop offset="0.08" stop-color="#a88a52"/><stop offset="0.26" stop-color="#c8ac63"/><stop offset="0.44" stop-color="#d6bd6e"/><stop offset="0.66" stop-color="#b79c59"/><stop offset="0.78" stop-color="#aa8c52"/><stop offset="0.92" stop-color="#a58a52"/><stop offset="1" stop-color="#9e814c"/></linearGradient><linearGradient id="Nova_amostra_de_gradiente_2-2" x1="0" y1="329.28" x2="689.96" y2="329.28" xlink:href="#Nova_amostra_de_gradiente_2"/></defs><title>facebook</title><g id="Camada_2" data-name="Camada 2"><g id="Camada_1-2" data-name="Camada 1"><path class="cls-1" d="M380,638.16V420.21h73.16l11-84.94H380V281c0-24.6,6.83-41.35,42.1-41.35l45,0v-76c-7.78-1-34.47-3.34-65.54-3.34-64.84,0-109.24,39.58-109.24,112.27v62.64H219v84.94H292.3v218Z"/><path class="cls-2" d="M477.17,658.57H212.8C95.47,658.57,0,563.1,0,445.76v-233C0,95.46,95.47,0,212.8,0H477.17C594.5,0,690,95.46,690,212.79v233C690,563.1,594.5,658.57,477.17,658.57ZM212.8,47.29c-91.26,0-165.51,74.24-165.51,165.5v233c0,91.27,74.25,165.51,165.51,165.51H477.17c91.26,0,165.5-74.24,165.5-165.51v-233c0-91.26-74.24-165.5-165.5-165.5Z"/></g></g></svg>