<svg xmlns="http://www.w3.org/2000/svg" xmlns:xlink="http://www.w3.org/1999/xlink" viewBox="0 0 689.96 658.57"><defs><style>.cls-1{fill:url(#Nova_amostra_de_gradiente_2);}.cls-2{fill:url(#Nova_amostra_de_gradiente_2-2);}.cls-3{fill:url(#Nova_amostra_de_gradiente_2-3);}</style><linearGradient id="Nova_amostra_de_gradiente_2" y1="329.28" x2="689.96" y2="329.28" gradientUnits="userSpaceOnUse"><stop offset="0.08" stop-color="#a88a52"/><stop offset="0.26" stop-color="#c8ac63"/><stop offset="0.44" stop-color="#d6bd6e"/><stop offset="0.66" stop-color="#b79c59"/><stop offset="0.78" stop-color="#aa8c52"/><stop offset="0.92" stop-color="#a58a52"/><stop offset="1" stop-color="#9e814c"/></linearGradient><linearGradient id="Nova_amostra_de_gradiente_2-2" x1="155.57" y1="329.28" x2="534.4" y2="329.28" xlink:href="#Nova_amostra_de_gradiente_2"/><linearGradient id="Nova_amostra_de_gradiente_2-3" x1="492.2" y1="145.68" x2="570.81" y2="145.68" xlink:href="#Nova_amostra_de_gradiente_2"/></defs><title>instagram</title><g id="Camada_2" data-name="Camada 2"><g id="Camada_1-2" data-name="Camada 1"><path class="cls-1" d="M477.17,658.57H212.8C95.47,658.57,0,563.1,0,445.76v-233C0,95.46,95.47,0,212.8,0H477.17C594.5,0,690,95.46,690,212.79v233C690,563.1,594.5,658.57,477.17,658.57ZM212.8,47.29c-91.26,0-165.51,74.24-165.51,165.5v233c0,91.27,74.25,165.51,165.51,165.51H477.17c91.26,0,165.5-74.24,165.5-165.51v-233c0-91.26-74.24-165.5-165.5-165.5Z"/><path class="cls-2" d="M345,518.7c-104.46,0-189.42-85-189.42-189.42s85-189.41,189.42-189.41S534.4,224.82,534.4,329.28,449.43,518.7,345,518.7Zm0-331.56c-78.38,0-142.14,63.76-142.14,142.14S266.61,471.41,345,471.41s142.12-63.76,142.12-142.13S423.35,187.14,345,187.14Z"/><path class="cls-3" d="M570.81,145.69a39.31,39.31,0,1,1-39.3-39.31A39.3,39.3,0,0,1,570.81,145.69Z"/></g></g></svg>