<svg xmlns="http://www.w3.org/2000/svg" xmlns:xlink="http://www.w3.org/1999/xlink" viewBox="0 0 658.32 658.3"><defs><style>.cls-1{fill:url(#Nova_amostra_de_gradiente_2);}.cls-2{fill:url(#Nova_amostra_de_gradiente_2-2);}</style><linearGradient id="Nova_amostra_de_gradiente_2" y1="329.15" x2="658.32" y2="329.15" gradientUnits="userSpaceOnUse"><stop offset="0.08" stop-color="#a88a52"/><stop offset="0.26" stop-color="#c8ac63"/><stop offset="0.44" stop-color="#d6bd6e"/><stop offset="0.66" stop-color="#b79c59"/><stop offset="0.78" stop-color="#aa8c52"/><stop offset="0.92" stop-color="#a58a52"/><stop offset="1" stop-color="#9e814c"/></linearGradient><linearGradient id="Nova_amostra_de_gradiente_2-2" x1="153.05" y1="329.14" x2="505.27" y2="329.14" xlink:href="#Nova_amostra_de_gradiente_2"/></defs><title>zapzap</title><g id="Camada_2" data-name="Camada 2"><g id="Camada_1-2" data-name="Camada 1"><path class="cls-1" d="M329.15,658.3A327.66,327.66,0,0,1,165,614.12L36.74,658.3,63.09,522.5A325.43,325.43,0,0,1,0,329.15C0,147.66,147.65,0,329.15,0S658.32,147.66,658.32,329.15,510.66,658.3,329.15,658.3ZM168.94,563.15l10,6.29a282.51,282.51,0,0,0,150.18,43.37c156.42,0,283.66-127.25,283.66-283.66S485.57,45.5,329.15,45.5,45.5,172.74,45.5,329.15c0,63.63,20.85,123.93,60.26,174.35l6.95,8.91L98.13,587.54Z"/><path class="cls-2" d="M163,202.69s19.3-33.76,35-35.69,36-1.94,41.48,8.36,29.9,70.09,29.9,70.09,4.18,10.3-2.25,20.26-20.89,24.43-20.89,24.43-8,10.3,0,21.23,20.51,31,46.31,56.8,75.22,44.16,75.22,44.16,7.08,1,11.58-3.53,28.94-35.06,28.94-35.06,7.86-10.12,20.9-4.17,69.44,34.07,69.44,34.07,6.6,2.42,6.6,12.38-4,34.36-12.28,42.6-32.37,33.67-68.59,33.67-122.51-29.48-168.49-75.45-86.81-92.61-96.45-135S151.09,220.16,163,202.69Z"/></g></g></svg>